<svg width="50" height="50" viewBox="0 0 50 50" fill="none" xmlns="http://www.w3.org/2000/svg">
<g clip-path="url(#clip0)">
<path d="M40.5795 25.3516L35.8334 23.6229C35.6869 23.5645 35.5112 23.5352 35.3355 23.5352H4.92525C4.10484 23.5352 3.4604 24.1796 3.4604 25V45.6055C3.4604 48.037 5.4232 50 7.85494 50H37.1519C39.5836 50 41.5464 48.037 41.5464 45.6055V26.7284C41.5464 26.1133 41.1655 25.5566 40.5795 25.3516Z" fill="#FC1A40"/>
<path d="M41.5464 26.7284V45.6055C41.5464 48.037 39.5836 50 37.1519 50H22.5034V23.5352H35.3355C35.5112 23.5352 35.687 23.5645 35.8334 23.6229L40.5795 25.3516C41.1655 25.5566 41.5464 26.1133 41.5464 26.7284Z" fill="#C60034"/>
<path d="M41.0191 9.54961C40.5212 7.52812 39.0269 5.94618 37.0054 5.30155C35.0132 4.68622 32.8745 5.12577 31.3218 6.53193L27.9233 9.52031L27.2496 5.03798C26.9273 2.9872 25.6089 1.25858 23.6461 0.438362C23.2653 0.291779 22.8844 0.174592 22.5036 0.115998C20.8922 -0.206268 19.2223 0.145295 17.8745 1.14149C16.0874 2.43055 15.1793 4.59853 15.4722 6.7664C15.7946 8.93437 17.2594 10.7801 19.3394 11.5125L22.5036 12.6551L26.4 14.0906C26.4293 14.0906 26.4293 14.0906 26.4293 14.0906L33.1969 16.5808C33.8707 16.8152 34.5738 16.9325 35.2476 16.9325C36.6834 16.9325 38.0895 16.405 39.2028 15.409C40.8433 13.9441 41.5465 11.6882 41.0191 9.54961Z" fill="#FE9923"/>
<path d="M39.2026 15.4093C38.0894 16.4053 36.6831 16.9328 35.2475 16.9328C34.5737 16.9328 33.8706 16.8156 33.1968 16.5811L26.4292 14.0909C26.4292 14.0909 26.4292 14.0909 26.3999 14.0909L22.5034 12.6554V0.116211C22.8843 0.174902 23.2651 0.291993 23.646 0.438575C25.6088 1.25879 26.9272 2.98741 27.2494 5.03819L27.9231 9.52053L31.3217 6.53214C32.8743 5.12599 35.0131 4.68643 37.0053 5.30177C39.0268 5.9464 40.5209 7.52834 41.019 9.54982C41.5464 11.6885 40.8433 13.9445 39.2026 15.4093Z" fill="#FE8821"/>
<path d="M46.5563 22.8614L44.5642 28.3692C44.3297 28.9552 43.773 29.3067 43.1871 29.3067C43.0113 29.3067 42.8355 29.2774 42.6892 29.2189L27.5425 23.7111L26.1657 19.1701L22.5036 19.9903L19.281 20.7227L4.13439 15.2149C3.37267 14.922 2.99191 14.0723 3.25548 13.3399L5.27697 7.83229C5.65783 6.719 6.47824 5.8399 7.53293 5.34195C8.58762 4.844 9.7887 4.78531 10.902 5.19547L22.5037 9.41422L23.2948 9.70709C23.2948 9.70709 26.4588 15.4494 26.5467 15.4494C26.6054 15.4494 27.8651 14.7463 29.0956 14.0723C30.3258 13.3985 31.5563 12.6955 31.5563 12.6955L43.9195 17.2071C45.0328 17.6173 45.9117 18.4377 46.4097 19.4924C46.9079 20.547 46.9664 21.7482 46.5563 22.8614Z" fill="#FF3E75"/>
<path d="M46.5562 22.8612L44.564 28.3691C44.3295 28.955 43.7729 29.3066 43.187 29.3066C43.0112 29.3066 42.8354 29.2773 42.689 29.2188L27.5424 23.711L26.1655 19.1699L22.5034 19.9901V9.41406L23.2945 9.70693C23.2945 9.70693 26.4585 15.4492 26.5465 15.4492C26.6052 15.4492 27.8648 14.7461 29.0953 14.0722C30.3256 13.3983 31.5562 12.6953 31.5562 12.6953L43.9194 17.2069C45.0327 17.6171 45.9116 18.4375 46.4095 19.4922C46.9078 20.5468 46.9663 21.7481 46.5562 22.8612Z" fill="#FC1A40"/>
<path d="M18.1089 23.5352V50.0001H26.898V23.5352H18.1089Z" fill="#FCBF29"/>
<path d="M23.2944 9.70703L22.5033 11.875L19.2807 20.7228L22.5033 21.8947L26.1654 23.2131L27.5423 23.7111L31.5562 12.6954L23.2944 9.70703Z" fill="#FCBF29"/>
<path d="M26.8984 23.5352H22.5039V50.0001H26.8984V23.5352Z" fill="#FE9923"/>
<path d="M31.5562 12.6954L27.5424 23.7111L26.1655 23.213L22.5034 21.8947V11.875L23.2944 9.70703L31.5562 12.6954Z" fill="#FE9923"/>
</g>
<defs>
<clipPath id="clip0">
<rect width="50" height="50" fill="white"/>
</clipPath>
</defs>
</svg>
