<svg width="25" height="25" viewBox="0 0 25 25" fill="none" xmlns="http://www.w3.org/2000/svg">
<path d="M18.9462 18.5768C17.3463 18.5768 16.0271 19.8679 16.0271 21.4959C16.0271 23.0958 17.3182 24.415 18.9462 24.415C20.5461 24.415 21.8653 23.1238 21.8653 21.4959C21.8373 19.896 20.5461 18.5768 18.9462 18.5768Z" fill="white"/>
<path d="M24.0827 4.65491C24.0265 4.65491 23.9423 4.62684 23.8581 4.62684H6.17505L5.89436 2.74626C5.72595 1.51125 4.65935 0.584991 3.39628 0.584991H1.12274C0.505231 0.584991 0 1.09022 0 1.70773C0 2.32523 0.505231 2.83046 1.12274 2.83046H3.39628C3.53662 2.83046 3.64889 2.94274 3.67696 3.08308L5.4172 14.9279C5.64175 16.4156 6.93289 17.5383 8.44858 17.5383H20.125C21.5846 17.5383 22.8477 16.4998 23.1564 15.0683L24.9809 5.94605C25.0931 5.35662 24.7002 4.76718 24.0827 4.65491Z" fill="white"/>
<path d="M11.7887 21.3555C11.7325 19.8118 10.4414 18.5768 8.89764 18.5768C7.26967 18.661 6.03466 20.0082 6.0908 21.6081C6.14694 23.1519 7.41001 24.3869 8.95377 24.3869H9.00991C10.6098 24.3027 11.8729 22.9554 11.7887 21.3555Z" fill="white"/>
</svg>
